<?xml version="1.0" encoding="UTF-8"?>
<svg xmlns="http://www.w3.org/2000/svg" xmlns:xlink="http://www.w3.org/1999/xlink" width="15px" height="15px" viewBox="0 0 15 15" version="1.1">
<g id="surface1">
<path style=" stroke:none;fill-rule:nonzero;fill:rgb(35.686275%,34.901961%,34.901961%);fill-opacity:1;" d="M 6.753906 1.25 C 6.429688 1.25 6.121094 1.378906 5.894531 1.605469 L 5.625 1.875 L 2.5 1.875 C 2.273438 1.871094 2.066406 1.992188 1.953125 2.183594 C 1.835938 2.378906 1.835938 2.621094 1.953125 2.816406 C 2.066406 3.007812 2.273438 3.128906 2.5 3.125 L 12.5 3.125 C 12.726562 3.128906 12.933594 3.007812 13.046875 2.816406 C 13.164062 2.621094 13.164062 2.378906 13.046875 2.183594 C 12.933594 1.992188 12.726562 1.871094 12.5 1.875 L 9.375 1.875 L 9.105469 1.605469 C 8.878906 1.378906 8.570312 1.25 8.246094 1.25 Z M 2.726562 4.375 L 3.683594 12.664062 C 3.765625 13.285156 4.296875 13.75 4.921875 13.75 L 10.078125 13.75 C 10.699219 13.75 11.234375 13.285156 11.316406 12.660156 L 12.273438 4.375 Z M 2.726562 4.375 "/>
</g>
</svg>
