<svg xmlns="http://www.w3.org/2000/svg" version="1.1" xmlns:xlink="http://www.w3.org/1999/xlink" xmlns:svgjs="http://svgjs.dev/svgjs" width="1500" height="257" viewBox="0 0 1500 257"><g transform="matrix(1,0,0,1,-0.9090909090909918,-0.7330545071293528)"><svg viewBox="0 0 396 68" data-background-color="#243837" preserveAspectRatio="xMidYMid meet" height="257" width="1500" xmlns="http://www.w3.org/2000/svg" xmlns:xlink="http://www.w3.org/1999/xlink"><g id="tight-bounds" transform="matrix(1,0,0,1,0.2400000000000091,0.19395994741165623)"><svg viewBox="0 0 395.52 67.61208010517667" height="67.61208010517667" width="395.52"><g><svg viewBox="0 0 524.3911563497818 89.64193181019334" height="67.61208010517667" width="395.52"><g><rect width="6.519356387997472" height="72.65333989455186" x="105.2854219827333" y="8.49429595782074" fill="#2563eb" opacity="1" stroke-width="0" stroke="transparent" fill-opacity="1" class="rect-qz-0" data-fill-palette-color="primary" rx="1%" id="qz-0" data-palette-color="#2563eb"></rect></g><g transform="matrix(1,0,0,1,128.87115634978176,8.675025659050966)"><svg viewBox="0 0 395.52 72.29188049209141" height="72.29188049209141" width="395.52"><g id="textblocktransform"><svg viewBox="0 0 395.52 72.29188049209141" height="72.29188049209141" width="395.52" id="textblock"><g><svg viewBox="0 0 395.52 72.29188049209141" height="72.29188049209141" width="395.52"><g transform="matrix(1,0,0,1,0,0)"><svg width="395.52" viewBox="1.65 -35.7 199.13 36.400000000000006" height="72.29188049209141" data-palette-color="#2563eb"><path d="M11.6 0.7Q9.15 0.7 6.48 0.13 3.8-0.45 2.1-1.25L2.1-1.25 2.75-6.25Q4.75-5 7.2-4.23 9.65-3.45 12.05-3.45L12.05-3.45Q15.15-3.45 16.9-4.73 18.65-6 18.65-8.45L18.65-8.45Q18.65-10.2 17.82-11.45 17-12.7 15.45-13.68 13.9-14.65 11.1-15.9L11.1-15.9Q7.8-17.4 5.88-18.65 3.95-19.9 2.8-21.75 1.65-23.6 1.65-26.35L1.65-26.35Q1.65-29.15 3.1-31.28 4.55-33.4 7.18-34.55 9.8-35.7 13.15-35.7L13.15-35.7Q15.7-35.7 17.98-35.15 20.25-34.6 21.85-33.8L21.85-33.8 21.35-29.1Q17.2-31.55 12.9-31.55L12.9-31.55Q10-31.55 8.35-30.35 6.7-29.15 6.7-26.65L6.7-26.65Q6.7-24.95 7.58-23.83 8.45-22.7 10-21.83 11.55-20.95 14.7-19.5L14.7-19.5Q19.4-17.4 21.55-14.98 23.7-12.55 23.7-8.9L23.7-8.9Q23.7-4.45 20.45-1.88 17.2 0.7 11.6 0.7L11.6 0.7ZM40.7-24.5L45.05-24.5 45.05 0 41.35 0 41.05-3Q40.05-1.35 38.35-0.43 36.65 0.5 34.6 0.5L34.6 0.5Q30.75 0.5 28.87-2.08 27-4.65 27-9.45L27-9.45 27-24.5 31.35-24.5 31.35-10Q31.35-6.7 32.32-5.08 33.3-3.45 35.6-3.45L35.6-3.45Q37.2-3.45 38.5-4.35 39.8-5.25 40.7-6.85L40.7-6.85 40.7-24.5ZM75.45-25Q83.55-25 83.55-14L83.55-14 83.55 0 79.2 0 79.2-13.45Q79.2-17.45 78.12-19.23 77.05-21 74.5-21L74.5-21Q72.05-21 70.75-19.2 69.45-17.4 69.45-14L69.45-14 69.45 0 65.1 0 65.1-13.45Q65.1-17.3 64.02-19.15 62.95-21 60.7-21L60.7-21Q59.05-21 57.65-20.1 56.25-19.2 55.3-17.6L55.3-17.6 55.3 0 50.95 0 50.95-24.5 54.55-24.5 54.9-21.4Q55.95-23.05 57.75-24.03 59.55-25 61.7-25L61.7-25Q63.95-25 65.57-23.93 67.2-22.85 68.15-20.85L68.15-20.85Q69.1-22.8 70.97-23.9 72.85-25 75.45-25L75.45-25ZM112.69-25Q120.79-25 120.79-14L120.79-14 120.79 0 116.44 0 116.44-13.45Q116.44-17.45 115.37-19.23 114.29-21 111.74-21L111.74-21Q109.29-21 107.99-19.2 106.69-17.4 106.69-14L106.69-14 106.69 0 102.34 0 102.34-13.45Q102.34-17.3 101.27-19.15 100.19-21 97.94-21L97.94-21Q96.29-21 94.89-20.1 93.49-19.2 92.54-17.6L92.54-17.6 92.54 0 88.19 0 88.19-24.5 91.79-24.5 92.14-21.4Q93.19-23.05 94.99-24.03 96.79-25 98.94-25L98.94-25Q101.19-25 102.82-23.93 104.44-22.85 105.39-20.85L105.39-20.85Q106.34-22.8 108.22-23.9 110.09-25 112.69-25L112.69-25ZM144.44 0L141.64-9.5 130.79-9.5 127.99 0 123.09 0 133.84-35 138.54-35 149.29 0 144.44 0ZM132.04-13.75L140.39-13.75 136.19-27.95 132.04-13.75ZM152.59-30.05L152.59-35 156.94-35 156.94-30.05 152.59-30.05ZM152.59 0L152.59-24.5 156.94-24.5 156.94 0 152.59 0ZM179.08-24.5L167.83-3.9 178.83-3.9 178.83 0 160.78 0 172.03-20.55 161.33-20.55 161.33-24.5 179.08-24.5ZM192.83 0.5Q189.13 0.5 186.51-1.23 183.88-2.95 182.56-5.9 181.23-8.85 181.23-12.45L181.23-12.45Q181.23-15.9 182.46-18.78 183.68-21.65 186.01-23.33 188.33-25 191.53-25L191.53-25Q195.63-25 198.21-22.25 200.78-19.5 200.78-14.65L200.78-14.65Q200.78-13.8 200.58-12.3L200.58-12.3 185.68-12.3Q185.83-7.95 187.86-5.7 189.88-3.45 193.13-3.45L193.13-3.45Q194.68-3.45 196.41-3.83 198.13-4.2 199.43-4.9L199.43-4.9 199.83-1Q197.08 0.5 192.83 0.5L192.83 0.5ZM185.88-15.35L196.33-15.35Q196.33-17.85 195.11-19.43 193.88-21 191.58-21L191.58-21Q189.33-21 187.86-19.6 186.38-18.2 185.88-15.35L185.88-15.35Z" opacity="1" transform="matrix(1,0,0,1,0,0)" fill="#2563eb" class="wordmark-text-0" data-fill-palette-color="primary" id="text-0"></path></svg></g></svg></g></svg></g></svg></g><g><svg viewBox="0 0 88.21904400368233 89.64193181019334" height="89.64193181019334" width="88.21904400368233"><g><svg xmlns="http://www.w3.org/2000/svg" xmlns:xlink="http://www.w3.org/1999/xlink" version="1.1" x="0" y="0" viewBox="4 3.5 62 63" style="enable-background:new 0 0 70 70;" xml:space="preserve" height="89.64193181019334" width="88.21904400368233" class="icon-icon-0" data-fill-palette-color="accent" id="icon-0"><path d="M10.041 44.479c-0.205 0.681-0.317 1.397-0.317 2.135 0 3.164 1.989 5.888 4.836 7.115v0.725c0 4.614 3.938 8.368 8.778 8.368 0.588 0 1.161-0.073 1.725-0.18C26.161 64.938 28.56 66.5 31.417 66.5c2.43 0 4.431-1.154 5.565-3H41c0.552 0 1-0.448 1-1v-4.533c2.845-0.599 5.601-1.739 8.057-3.336l3.206 3.206c0.188 0.188 0.442 0.293 0.707 0.293s0.52-0.105 0.707-0.293l5.66-5.66c0.391-0.391 0.391-1.023 0-1.414l-3.207-3.206c1.597-2.456 2.738-5.211 3.337-8.057H65c0.552 0 1-0.448 1-1v-8c0-0.552-0.448-1-1-1h-4.533c-0.599-2.845-1.74-5.601-3.337-8.056l3.207-3.207c0.391-0.391 0.391-1.023 0-1.414l-5.66-5.66c-0.375-0.375-1.039-0.375-1.414 0l-3.206 3.207C47.602 12.773 44.846 11.632 42 11.034V6.5c0-0.552-0.448-1-1-1h-4.882c-1.183-1.248-2.841-2-4.733-2-2.49 0-4.672 1.317-5.905 3.287h-1.848c-4.835 0-8.768 3.762-8.768 8.385v0.286c-4.188 0.366-7.486 3.887-7.486 8.168 0 1.802 0.594 3.464 1.586 4.818C6.055 29.92 4 33.073 4 36.32 4 40.009 6.529 43.326 10.041 44.479zM40 7.5v4.36c0 0.487 0.351 0.903 0.831 0.986 3.124 0.538 6.158 1.794 8.774 3.633 0.397 0.279 0.938 0.231 1.282-0.112l3.083-3.083 4.246 4.246-3.083 3.083c-0.344 0.344-0.391 0.884-0.112 1.282 1.839 2.618 3.096 5.652 3.634 8.774C58.737 31.149 59.153 31.5 59.64 31.5H64v6h-4.36c-0.487 0-0.903 0.351-0.985 0.831-0.538 3.123-1.794 6.157-3.634 8.774-0.279 0.397-0.232 0.938 0.112 1.282l3.083 3.083-4.246 4.246-3.083-3.083c-0.343-0.342-0.885-0.391-1.282-0.111-2.618 1.839-5.652 3.095-8.774 3.633C40.351 56.237 40 56.653 40 57.14V61.5h-2.207c0.128-0.55 0.202-1.128 0.202-1.737V49.45C45.802 48.933 52 42.435 52 34.5s-6.198-14.433-14.005-14.95v-9.124c0-1.06-0.21-2.045-0.582-2.926H40zM37.995 47.45V21.55C44.699 22.062 50 27.667 50 34.5S44.699 46.938 37.995 47.45zM10.438 29.994c1.409 1.135 3.197 1.818 5.145 1.818 0.552 0 1-0.448 1-1s-0.448-1-1-1c-3.421 0-6.205-2.775-6.205-6.186 0-3.421 2.784-6.205 6.205-6.205 1.654 0 3.207 0.644 4.374 1.813 0.391 0.391 1.023 0.391 1.414 0.002 0.391-0.391 0.392-1.023 0.002-1.415-1.239-1.241-2.808-2.025-4.509-2.291v-0.358c0-3.521 3.036-6.385 6.768-6.385h0.999c-0.134 0.539-0.213 1.1-0.213 1.68 0 0.315 0.023 0.618 0.058 0.921 0.064 0.548 0.563 0.951 1.108 0.878 0.549-0.063 0.942-0.56 0.878-1.108-0.026-0.227-0.044-0.455-0.044-0.691C26.418 7.729 28.646 5.5 31.385 5.5c2.671 0 4.61 2.072 4.61 4.926v49.337c0 2.789-1.883 4.737-4.578 4.737-2.803 0-4.999-2.063-4.999-4.696 0-0.699 0.153-1.407 0.441-2.047 0.228-0.503 0.004-1.096-0.499-1.322-0.503-0.227-1.095-0.003-1.323 0.499-0.411 0.909-0.619 1.875-0.619 2.87 0 0.314 0.029 0.619 0.071 0.92-0.379 0.06-0.764 0.097-1.151 0.098-3.738 0-6.779-2.857-6.778-6.368v-0.146c0.446 0.072 0.902 0.118 1.369 0.118 1.256 0 2.461-0.264 3.583-0.786 0.501-0.232 0.718-0.827 0.486-1.328-0.233-0.501-0.828-0.719-1.329-0.485-0.856 0.397-1.778 0.599-2.74 0.599-3.421 0-6.205-2.607-6.205-5.812 0-3.02 2.506-5.572 5.705-5.812 0.551-0.041 0.964-0.521 0.922-1.072-0.041-0.551-0.52-0.965-1.072-0.922-2.732 0.205-5.077 1.708-6.401 3.835C8.378 41.887 6 39.474 6 36.32 6 33.601 7.881 30.983 10.438 29.994z" fill="#2563eb" data-fill-palette-color="accent"></path><path d="M19.487 25.947c0.479 0.082 1.034 0.131 1.635 0.131 3.172 0 7.606-1.39 8.693-6.828 0.108-0.542-0.243-1.068-0.784-1.177-0.544-0.107-1.069 0.243-1.177 0.784-1.234 6.167-7.753 5.165-8.033 5.118-0.542-0.091-1.059 0.275-1.152 0.818C18.577 25.337 18.943 25.854 19.487 25.947z" fill="#2563eb" data-fill-palette-color="accent"></path><path d="M26.914 44.341c-2.156-1.24-4.37-0.65-4.465-0.624-0.53 0.146-0.839 0.691-0.696 1.222 0.143 0.531 0.692 0.847 1.222 0.707 0.404-0.106 4.013-0.896 5.318 4.05 0.118 0.448 0.523 0.745 0.967 0.745 0.084 0 0.17-0.011 0.256-0.033 0.534-0.141 0.853-0.688 0.711-1.222C29.62 46.886 28.505 45.256 26.914 44.341z" fill="#2563eb" data-fill-palette-color="accent"></path></svg></g></svg></g></svg></g><defs></defs></svg><rect width="395.52" height="67.61208010517667" fill="none" stroke="none" visibility="hidden"></rect></g></svg></g></svg>